<svg xmlns:xlink="http://www.w3.org/1999/xlink" xmlns="http://www.w3.org/2000/svg" version="1.1" viewBox="0 0 137 90" height="90px" width="137px">
    <title>Group</title>
    <g fill-rule="evenodd" fill="none" stroke-width="1" stroke="none" id="Page-1">
        <g transform="translate(-652.000000, -33.000000)" id="Desktop-HD">
            <rect height="1024" width="1440" y="0" x="0" fill="#000000" id="Rectangle"></rect>
            <g fill="#FFFFFF" transform="translate(100.000000, 33.000000)" id="header">
                <g transform="translate(552.000000, 0.000000)" id="Group">
                    <rect height="10" width="10" y="67" x="0" id="Rectangle"></rect>
                    <rect height="10" width="10" y="53" x="0" id="Rectangle"></rect>
                    <rect height="10" width="10" y="39" x="0" id="Rectangle"></rect>
                    <rect height="10" width="10" y="25" x="0" id="Rectangle"></rect>
                    <rect height="10" width="10" y="11" x="0" id="Rectangle"></rect>
                    <rect height="10" width="10" y="0" x="14" id="Rectangle"></rect>
                    <rect height="10" width="10" y="0" x="28" id="Rectangle"></rect>
                    <rect height="10" width="10" y="0" x="42" id="Rectangle"></rect>
                    <rect height="10" width="10" y="0" x="56" id="Rectangle"></rect>
                    <rect height="10" width="10" y="0" x="70" id="Rectangle"></rect>
                    <rect height="10" width="10" y="0" x="84" id="Rectangle"></rect>
                    <rect height="10" width="10" y="0" x="98" id="Rectangle"></rect>
                    <rect height="10" width="10" y="0" x="112" id="Rectangle"></rect>
                    <rect height="10" width="10" y="11" x="127" id="Rectangle"></rect>
                    <rect height="10" width="10" y="25" x="127" id="Rectangle"></rect>
                    <rect height="10" width="10" y="39" x="127" id="Rectangle"></rect>
                    <rect height="10" width="10" y="53" x="127" id="Rectangle"></rect>
                    <rect height="10" width="10" y="67" x="127" id="Rectangle"></rect>
                    <rect height="10" width="10" y="80" x="112" id="Rectangle"></rect>
                    <rect height="10" width="10" y="80" x="98" id="Rectangle"></rect>
                    <rect height="10" width="10" y="80" x="84" id="Rectangle"></rect>
                    <rect height="10" width="10" y="80" x="70" id="Rectangle"></rect>
                    <rect height="10" width="10" y="80" x="56" id="Rectangle"></rect>
                    <rect height="10" width="10" y="80" x="42" id="Rectangle"></rect>
                    <rect height="10" width="10" y="80" x="28" id="Rectangle"></rect>
                    <rect height="10" width="10" y="80" x="14" id="Rectangle"></rect>
                    <rect height="5" width="20" y="68" x="33" id="Rectangle"></rect>
                    <rect height="5" width="23" y="17" x="81" id="Rectangle"></rect>
                    <rect height="15" width="13" y="37" x="46" id="Rectangle"></rect>
                    <text font-weight="normal" font-size="36" font-family="SubwayTicker, Subway Ticker" id="P-NG" xml:space="preserve">
                        <tspan y="59" x="16">P  NG</tspan>
                    </text>
                </g>
            </g>
        </g>
    </g>
</svg>